<svg xmlns="http://www.w3.org/2000/svg" xmlns:xlink="http://www.w3.org/1999/xlink" width="171" zoomAndPan="magnify" viewBox="0 0 128.25 128.250003" height="171" preserveAspectRatio="xMidYMid meet" version="1.0"><defs><g/><clipPath id="2d063513eb"><path d="M 0 0 L 127.503906 0 L 127.503906 127.503906 L 0 127.503906 Z M 0 0 " clip-rule="nonzero"/></clipPath><clipPath id="0e00a1da1a"><path d="M 39.699219 41.804688 L 87.199219 41.804688 L 87.199219 86.765625 L 39.699219 86.765625 Z M 39.699219 41.804688 " clip-rule="nonzero"/></clipPath><clipPath id="616f3f9cb6"><path d="M 0.699219 0.804688 L 48.199219 0.804688 L 48.199219 45.765625 L 0.699219 45.765625 Z M 0.699219 0.804688 " clip-rule="nonzero"/></clipPath><clipPath id="9a06067d87"><rect x="0" width="49" y="0" height="46"/></clipPath></defs><g clip-path="url(#2d063513eb)"><path fill="#ffffff" d="M 82.175781 2.804688 C 83.175781 3.105469 84.164062 3.433594 85.144531 3.78125 C 86.128906 4.132812 87.101562 4.507812 88.066406 4.90625 C 89.027344 5.304688 89.980469 5.726562 90.925781 6.171875 C 91.867188 6.617188 92.796875 7.085938 93.71875 7.578125 C 94.636719 8.070312 95.546875 8.582031 96.441406 9.117188 C 97.335938 9.652344 98.214844 10.210938 99.082031 10.789062 C 99.949219 11.367188 100.804688 11.96875 101.640625 12.589844 C 102.480469 13.210938 103.300781 13.851562 104.109375 14.511719 C 104.914062 15.171875 105.703125 15.851562 106.476562 16.554688 C 107.25 17.253906 108.003906 17.972656 108.742188 18.707031 C 109.480469 19.445312 110.199219 20.199219 110.898438 20.972656 C 111.601562 21.746094 112.28125 22.535156 112.945312 23.339844 C 113.605469 24.144531 114.246094 24.964844 114.871094 25.804688 C 115.492188 26.640625 116.089844 27.492188 116.671875 28.359375 C 117.25 29.226562 117.808594 30.105469 118.347656 31 C 118.882812 31.894531 119.398438 32.800781 119.890625 33.722656 C 120.378906 34.640625 120.851562 35.570312 121.296875 36.515625 C 121.742188 37.457031 122.164062 38.410156 122.566406 39.371094 C 122.964844 40.335938 123.339844 41.308594 123.691406 42.289062 C 124.042969 43.269531 124.371094 44.261719 124.675781 45.257812 C 124.976562 46.257812 125.257812 47.261719 125.511719 48.273438 C 125.765625 49.285156 125.992188 50.300781 126.195312 51.324219 C 126.402344 52.34375 126.578125 53.371094 126.734375 54.402344 C 126.886719 55.433594 127.015625 56.46875 127.117188 57.507812 C 127.21875 58.546875 127.296875 59.585938 127.347656 60.625 C 127.402344 61.667969 127.425781 62.710938 127.425781 63.753906 C 127.429688 64.796875 127.402344 65.835938 127.351562 66.878906 C 127.300781 67.921875 127.226562 68.960938 127.125 70 C 127.023438 71.035156 126.894531 72.070312 126.742188 73.101562 C 126.589844 74.132812 126.414062 75.160156 126.210938 76.183594 C 126.007812 77.207031 125.777344 78.222656 125.527344 79.234375 C 125.273438 80.246094 124.996094 81.25 124.695312 82.25 C 124.390625 83.246094 124.066406 84.238281 123.714844 85.21875 C 123.363281 86.203125 122.988281 87.175781 122.589844 88.136719 C 122.191406 89.101562 121.769531 90.054688 121.324219 90.996094 C 120.878906 91.941406 120.410156 92.871094 119.917969 93.792969 C 119.429688 94.710938 118.914062 95.617188 118.378906 96.515625 C 117.84375 97.410156 117.285156 98.289062 116.707031 99.15625 C 116.128906 100.023438 115.527344 100.875 114.90625 101.714844 C 114.289062 102.550781 113.648438 103.375 112.984375 104.179688 C 112.324219 104.988281 111.644531 105.777344 110.945312 106.550781 C 110.242188 107.324219 109.527344 108.078125 108.789062 108.816406 C 108.050781 109.554688 107.296875 110.273438 106.523438 110.972656 C 105.753906 111.675781 104.964844 112.355469 104.15625 113.015625 C 103.351562 113.679688 102.53125 114.320312 101.695312 114.941406 C 100.855469 115.5625 100.003906 116.164062 99.136719 116.746094 C 98.269531 117.324219 97.390625 117.882812 96.496094 118.417969 C 95.601562 118.957031 94.695312 119.46875 93.777344 119.960938 C 92.855469 120.453125 91.925781 120.921875 90.984375 121.371094 C 90.039062 121.816406 89.089844 122.238281 88.125 122.636719 C 87.160156 123.039062 86.1875 123.414062 85.207031 123.765625 C 84.226562 124.117188 83.238281 124.445312 82.238281 124.746094 C 81.242188 125.050781 80.238281 125.328125 79.226562 125.582031 C 78.214844 125.835938 77.195312 126.066406 76.175781 126.269531 C 75.152344 126.472656 74.125 126.652344 73.09375 126.804688 C 72.0625 126.960938 71.027344 127.089844 69.988281 127.191406 C 68.953125 127.292969 67.914062 127.371094 66.871094 127.421875 C 65.828125 127.472656 64.789062 127.5 63.746094 127.5 C 62.703125 127.5 61.660156 127.476562 60.617188 127.425781 C 59.578125 127.375 58.535156 127.300781 57.5 127.199219 C 56.460938 127.09375 55.425781 126.96875 54.394531 126.816406 C 53.363281 126.664062 52.335938 126.484375 51.3125 126.28125 C 50.289062 126.078125 49.273438 125.851562 48.261719 125.597656 C 47.25 125.347656 46.246094 125.070312 45.246094 124.765625 C 44.25 124.464844 43.257812 124.136719 42.277344 123.789062 C 41.296875 123.4375 40.324219 123.0625 39.359375 122.664062 C 38.394531 122.265625 37.441406 121.84375 36.5 121.398438 C 35.554688 120.953125 34.625 120.484375 33.707031 119.992188 C 32.785156 119.5 31.878906 118.988281 30.984375 118.453125 C 30.089844 117.917969 29.207031 117.359375 28.339844 116.78125 C 27.472656 116.203125 26.621094 115.601562 25.78125 114.980469 C 24.945312 114.359375 24.121094 113.71875 23.316406 113.058594 C 22.507812 112.398438 21.71875 111.71875 20.945312 111.015625 C 20.175781 110.316406 19.417969 109.597656 18.679688 108.863281 C 17.941406 108.125 17.222656 107.371094 16.523438 106.597656 C 15.824219 105.824219 15.140625 105.035156 14.480469 104.230469 C 13.816406 103.425781 13.175781 102.605469 12.554688 101.765625 C 11.933594 100.929688 11.332031 100.078125 10.753906 99.210938 C 10.171875 98.34375 9.613281 97.464844 9.078125 96.570312 C 8.542969 95.675781 8.027344 94.769531 7.535156 93.847656 C 7.042969 92.929688 6.574219 92 6.128906 91.054688 C 5.679688 90.113281 5.257812 89.160156 4.859375 88.199219 C 4.460938 87.234375 4.082031 86.261719 3.730469 85.28125 C 3.378906 84.300781 3.050781 83.308594 2.75 82.3125 C 2.445312 81.3125 2.167969 80.308594 1.914062 79.296875 C 1.660156 78.285156 1.429688 77.269531 1.226562 76.246094 C 1.023438 75.226562 0.84375 74.199219 0.691406 73.167969 C 0.535156 72.136719 0.410156 71.101562 0.304688 70.0625 C 0.203125 69.023438 0.125 67.984375 0.0742188 66.945312 C 0.0234375 65.902344 -0.00390625 64.859375 -0.00390625 63.816406 C -0.00390625 62.773438 0.0195312 61.734375 0.0703125 60.691406 C 0.121094 59.648438 0.199219 58.609375 0.300781 57.574219 C 0.402344 56.535156 0.527344 55.5 0.679688 54.46875 C 0.832031 53.4375 1.011719 52.410156 1.214844 51.386719 C 1.417969 50.363281 1.644531 49.347656 1.898438 48.335938 C 2.152344 47.324219 2.429688 46.320312 2.730469 45.320312 C 3.03125 44.324219 3.359375 43.332031 3.710938 42.351562 C 4.058594 41.367188 4.433594 40.394531 4.832031 39.433594 C 5.230469 38.46875 5.652344 37.515625 6.101562 36.574219 C 6.546875 35.628906 7.011719 34.699219 7.503906 33.777344 C 7.996094 32.859375 8.507812 31.953125 9.042969 31.054688 C 9.578125 30.160156 10.136719 29.28125 10.714844 28.414062 C 11.296875 27.546875 11.894531 26.695312 12.515625 25.855469 C 13.136719 25.019531 13.777344 24.195312 14.4375 23.390625 C 15.097656 22.582031 15.78125 21.792969 16.480469 21.019531 C 17.179688 20.246094 17.898438 19.492188 18.636719 18.753906 C 19.371094 18.015625 20.125 17.296875 20.898438 16.597656 C 21.671875 15.894531 22.460938 15.214844 23.265625 14.554688 C 24.070312 13.890625 24.894531 13.25 25.730469 12.628906 C 26.566406 12.007812 27.417969 11.40625 28.285156 10.824219 C 29.152344 10.246094 30.035156 9.6875 30.925781 9.152344 C 31.820312 8.613281 32.726562 8.101562 33.648438 7.609375 C 34.566406 7.117188 35.5 6.648438 36.441406 6.199219 C 37.382812 5.753906 38.335938 5.332031 39.300781 4.933594 C 40.261719 4.53125 41.234375 4.15625 42.214844 3.804688 C 43.199219 3.453125 44.1875 3.125 45.183594 2.824219 C 46.183594 2.519531 47.1875 2.242188 48.199219 1.988281 C 49.210938 1.734375 50.226562 1.503906 51.25 1.300781 C 52.273438 1.097656 53.300781 0.917969 54.332031 0.765625 C 55.363281 0.609375 56.398438 0.480469 57.433594 0.378906 C 58.472656 0.277344 59.511719 0.199219 60.554688 0.148438 C 61.59375 0.0976562 62.636719 0.0703125 63.679688 0.0703125 C 64.722656 0.0703125 65.765625 0.09375 66.804688 0.144531 C 67.847656 0.195312 68.886719 0.269531 69.925781 0.375 C 70.960938 0.476562 71.996094 0.601562 73.027344 0.753906 C 74.058594 0.90625 75.085938 1.085938 76.109375 1.289062 C 77.132812 1.492188 78.148438 1.71875 79.160156 1.972656 C 80.171875 2.222656 81.179688 2.5 82.175781 2.804688 Z M 82.175781 2.804688 " fill-opacity="1" fill-rule="nonzero"/></g><path fill="#059669" d="M 63.714844 121.511719 C 31.859375 121.511719 6.027344 95.609375 6.027344 63.828125 C 6.027344 32.042969 31.933594 6.066406 63.714844 6.066406 C 95.496094 6.066406 121.402344 31.96875 121.402344 63.753906 C 121.402344 95.535156 95.574219 121.511719 63.714844 121.511719 Z M 63.714844 8.96875 C 33.496094 8.96875 8.933594 33.53125 8.933594 63.753906 C 8.933594 93.972656 33.496094 118.535156 63.714844 118.535156 C 93.933594 118.535156 118.496094 93.972656 118.496094 63.753906 C 118.496094 33.53125 93.933594 8.96875 63.714844 8.96875 Z M 63.714844 8.96875 " fill-opacity="1" fill-rule="nonzero"/><path fill="#059669" d="M 63.714844 10.90625 C 34.535156 10.90625 10.867188 34.574219 10.867188 63.753906 C 10.867188 92.929688 34.535156 116.601562 63.714844 116.601562 C 92.894531 116.601562 116.5625 92.929688 116.5625 63.753906 C 116.5625 34.574219 92.894531 10.90625 63.714844 10.90625 Z M 22.851562 67.921875 L 20.320312 66.582031 L 17.789062 67.921875 L 18.3125 65.09375 L 16.226562 63.082031 L 19.054688 62.636719 L 20.320312 60.03125 L 21.585938 62.636719 L 24.414062 63.082031 L 22.328125 65.09375 Z M 63.714844 98.585938 C 44.511719 98.585938 28.878906 83.03125 28.878906 63.753906 C 28.878906 44.546875 44.4375 28.917969 63.714844 28.917969 C 82.917969 28.917969 98.550781 44.472656 98.550781 63.753906 C 98.550781 83.03125 82.992188 98.585938 63.714844 98.585938 Z M 107.183594 66.582031 L 104.652344 67.921875 L 105.175781 65.09375 L 103.089844 63.082031 L 105.917969 62.636719 L 107.183594 60.03125 L 108.449219 62.636719 L 111.277344 63.082031 L 109.195312 65.09375 L 109.714844 67.921875 Z M 107.183594 66.582031 " fill-opacity="1" fill-rule="nonzero"/><path fill="#ffffff" d="M 26.648438 53.40625 L 16.894531 49.164062 L 18.160156 46.1875 L 25.605469 47.300781 L 19.652344 42.6875 L 20.914062 39.710938 L 30.742188 43.953125 L 29.921875 45.8125 L 22.253906 42.464844 L 29.101562 47.75 L 28.285156 49.609375 L 19.726562 48.195312 L 27.464844 51.546875 Z M 26.648438 53.40625 " fill-opacity="1" fill-rule="nonzero"/><path fill="#ffffff" d="M 27.6875 38.964844 C 26.871094 38.222656 26.273438 37.550781 25.976562 36.808594 C 25.753906 36.285156 25.605469 35.691406 25.53125 35.09375 C 25.457031 34.5 25.53125 33.90625 25.753906 33.457031 C 25.976562 32.789062 26.347656 32.117188 26.945312 31.449219 C 27.988281 30.257812 29.179688 29.660156 30.519531 29.585938 C 31.859375 29.511719 33.199219 30.035156 34.535156 31.226562 C 35.800781 32.339844 36.546875 33.605469 36.621094 34.945312 C 36.769531 36.285156 36.25 37.550781 35.207031 38.742188 C 34.164062 39.933594 32.972656 40.527344 31.632812 40.601562 C 30.292969 40.601562 29.027344 40.082031 27.6875 38.964844 Z M 29.101562 37.253906 C 29.996094 38.074219 30.890625 38.445312 31.707031 38.445312 C 32.527344 38.445312 33.273438 38.148438 33.792969 37.476562 C 34.386719 36.808594 34.613281 36.136719 34.460938 35.246094 C 34.386719 34.425781 33.867188 33.605469 32.898438 32.789062 C 32.007812 31.96875 31.113281 31.597656 30.292969 31.597656 C 29.476562 31.597656 28.804688 31.96875 28.210938 32.640625 C 27.613281 33.308594 27.390625 34.054688 27.464844 34.871094 C 27.6875 35.617188 28.210938 36.433594 29.101562 37.253906 Z M 29.101562 37.253906 " fill-opacity="1" fill-rule="nonzero"/><path fill="#ffffff" d="M 39.972656 33.605469 L 34.3125 24.601562 L 36.101562 23.484375 L 43.542969 27.207031 L 39.746094 21.175781 L 41.460938 20.132812 L 47.117188 29.140625 L 45.253906 30.257812 L 37.960938 26.683594 L 41.609375 32.566406 Z M 39.972656 33.605469 " fill-opacity="1" fill-rule="nonzero"/><path fill="#ffffff" d="M 49.347656 28.246094 L 46.371094 18.050781 L 53.964844 15.816406 L 54.484375 17.527344 L 48.976562 19.167969 L 49.648438 21.398438 L 54.78125 19.910156 L 55.304688 21.621094 L 50.167969 23.113281 L 50.988281 25.867188 L 56.71875 24.226562 L 57.238281 25.941406 Z M 49.347656 28.246094 " fill-opacity="1" fill-rule="nonzero"/><path fill="#ffffff" d="M 61.855469 25.640625 L 61.78125 21.175781 L 57.761719 15.074219 L 60.292969 15 L 62.894531 19.167969 L 65.277344 14.925781 L 67.734375 14.847656 L 63.9375 21.101562 L 64.011719 25.566406 Z M 61.855469 25.640625 " fill-opacity="1" fill-rule="nonzero"/><path fill="#ffffff" d="M 77.261719 16.636719 L 81.207031 18.125 C 82.027344 18.421875 82.546875 18.71875 82.917969 18.867188 C 83.289062 19.09375 83.589844 19.316406 83.8125 19.6875 C 84.035156 19.984375 84.183594 20.359375 84.257812 20.804688 C 84.332031 21.25 84.257812 21.621094 84.109375 22.070312 C 83.960938 22.515625 83.664062 22.886719 83.214844 23.1875 C 82.84375 23.484375 82.398438 23.632812 81.875 23.632812 C 82.398438 24.078125 82.769531 24.527344 82.917969 25.046875 C 83.066406 25.566406 83.066406 26.164062 82.84375 26.757812 C 82.695312 27.207031 82.398438 27.578125 82.027344 27.949219 C 81.652344 28.320312 81.207031 28.546875 80.761719 28.621094 C 80.3125 28.769531 79.792969 28.695312 79.195312 28.546875 C 78.824219 28.472656 78.007812 28.171875 76.742188 27.652344 L 73.390625 26.386719 Z M 77.113281 23.039062 L 76.070312 25.714844 L 77.933594 26.460938 C 78.675781 26.757812 79.121094 26.90625 79.347656 26.90625 C 79.644531 26.980469 79.941406 26.90625 80.238281 26.757812 C 80.535156 26.609375 80.6875 26.386719 80.835938 26.015625 C 80.984375 25.714844 80.984375 25.417969 80.910156 25.195312 C 80.835938 24.898438 80.6875 24.675781 80.460938 24.527344 C 80.238281 24.300781 79.644531 24.078125 78.75 23.707031 Z M 78.601562 19.09375 L 77.707031 21.398438 L 79.046875 21.921875 C 79.867188 22.21875 80.3125 22.367188 80.535156 22.441406 C 80.910156 22.515625 81.207031 22.515625 81.503906 22.367188 C 81.800781 22.21875 81.949219 21.996094 82.101562 21.699219 C 82.25 21.398438 82.25 21.101562 82.101562 20.878906 C 82.027344 20.65625 81.800781 20.433594 81.503906 20.207031 C 81.28125 20.132812 80.761719 19.910156 79.792969 19.539062 Z M 78.601562 19.09375 " fill-opacity="1" fill-rule="nonzero"/><path fill="#ffffff" d="M 91.03125 36.585938 L 89.171875 35.167969 L 89.914062 32.714844 L 86.492188 30.109375 L 84.332031 31.523438 L 82.546875 30.109375 L 92.296875 24.152344 L 94.082031 25.566406 Z M 90.4375 30.851562 L 91.703125 26.832031 L 88.128906 29.140625 Z M 90.4375 30.851562 " fill-opacity="1" fill-rule="nonzero"/><path fill="#ffffff" d="M 99.070312 40.753906 L 99.816406 42.835938 C 98.699219 43.28125 97.65625 43.359375 96.761719 43.132812 C 95.871094 42.910156 95.050781 42.316406 94.382812 41.347656 C 93.5625 40.230469 93.265625 38.964844 93.488281 37.699219 C 93.710938 36.359375 94.53125 35.246094 95.871094 34.203125 C 97.285156 33.160156 98.699219 32.714844 100.039062 32.863281 C 101.378906 33.011719 102.496094 33.679688 103.386719 34.871094 C 104.132812 35.914062 104.503906 37.03125 104.355469 38.148438 C 104.28125 38.816406 103.984375 39.488281 103.460938 40.15625 L 101.75 38.742188 C 102.121094 38.296875 102.347656 37.847656 102.347656 37.328125 C 102.347656 36.808594 102.195312 36.359375 101.898438 35.839844 C 101.453125 35.167969 100.78125 34.871094 100.039062 34.796875 C 99.292969 34.722656 98.402344 35.09375 97.359375 35.839844 C 96.242188 36.660156 95.648438 37.402344 95.496094 38.148438 C 95.347656 38.890625 95.496094 39.5625 95.945312 40.15625 C 96.316406 40.601562 96.6875 40.902344 97.285156 41.050781 C 97.65625 41.199219 98.328125 41.050781 99.070312 40.753906 Z M 99.070312 40.753906 " fill-opacity="1" fill-rule="nonzero"/><path fill="#ffffff" d="M 98.027344 46.558594 L 108.003906 42.835938 L 108.746094 44.847656 L 104.28125 46.484375 L 110.234375 48.941406 L 111.203125 51.621094 L 105.917969 49.3125 L 101.304688 55.566406 L 100.335938 52.960938 L 103.984375 48.492188 L 101.675781 47.453125 L 98.625 48.566406 Z M 98.027344 46.558594 " fill-opacity="1" fill-rule="nonzero"/><g fill="#059669" fill-opacity="1"><g transform="translate(42.231332, 70.04352)"><g><path d="M 1.25 -17.625 C 1.25 -20.175781 1.957031 -22.148438 3.375 -23.546875 C 4.800781 -24.941406 6.816406 -25.640625 9.421875 -25.640625 C 12.304688 -25.640625 14.421875 -24.597656 15.765625 -22.515625 C 17.109375 -20.441406 17.78125 -17.1875 17.78125 -12.75 C 17.78125 -8.5 16.914062 -5.25 15.1875 -3 C 13.457031 -0.75 11.03125 0.375 7.90625 0.375 C 5.851562 0.375 3.96875 0.160156 2.25 -0.265625 L 2.25 -4.65625 L 3.484375 -4.65625 L 4.140625 -1.921875 C 4.546875 -1.734375 5.085938 -1.5625 5.765625 -1.40625 C 6.453125 -1.257812 7.140625 -1.1875 7.828125 -1.1875 C 9.847656 -1.1875 11.398438 -2.070312 12.484375 -3.84375 C 13.566406 -5.613281 14.164062 -8.222656 14.28125 -11.671875 C 12.363281 -10.597656 10.414062 -10.0625 8.4375 -10.0625 C 6.207031 -10.0625 4.453125 -10.722656 3.171875 -12.046875 C 1.890625 -13.378906 1.25 -15.238281 1.25 -17.625 Z M 9.453125 -24.140625 C 6.304688 -24.140625 4.734375 -21.941406 4.734375 -17.546875 C 4.734375 -15.617188 5.109375 -14.191406 5.859375 -13.265625 C 6.617188 -12.347656 7.789062 -11.890625 9.375 -11.890625 C 11.007812 -11.890625 12.648438 -12.226562 14.296875 -12.90625 C 14.296875 -16.769531 13.914062 -19.609375 13.15625 -21.421875 C 12.394531 -23.234375 11.160156 -24.140625 9.453125 -24.140625 Z M 9.453125 -24.140625 "/></g></g></g><g fill="#059669" fill-opacity="1"><g transform="translate(61.594658, 70.04352)"><g><path d="M 17.890625 -12.78125 C 17.890625 -4.007812 15.113281 0.375 9.5625 0.375 C 6.894531 0.375 4.878906 -0.742188 3.515625 -2.984375 C 2.148438 -5.234375 1.46875 -8.5 1.46875 -12.78125 C 1.46875 -16.976562 2.148438 -20.191406 3.515625 -22.421875 C 4.878906 -24.648438 6.945312 -25.765625 9.71875 -25.765625 C 12.394531 -25.765625 14.425781 -24.660156 15.8125 -22.453125 C 17.195312 -20.253906 17.890625 -17.03125 17.890625 -12.78125 Z M 14.40625 -12.78125 C 14.40625 -16.84375 14.019531 -19.769531 13.25 -21.5625 C 12.488281 -23.351562 11.257812 -24.25 9.5625 -24.25 C 7.925781 -24.25 6.75 -23.398438 6.03125 -21.703125 C 5.3125 -20.015625 4.953125 -17.039062 4.953125 -12.78125 C 4.953125 -8.5 5.316406 -5.484375 6.046875 -3.734375 C 6.785156 -1.984375 7.957031 -1.109375 9.5625 -1.109375 C 11.226562 -1.109375 12.453125 -2.023438 13.234375 -3.859375 C 14.015625 -5.703125 14.40625 -8.675781 14.40625 -12.78125 Z M 14.40625 -12.78125 "/></g></g></g><g fill="#059669" fill-opacity="1"><g transform="translate(41.619715, 84.841536)"><g><path d="M 9.0625 -5.1875 C 9.0625 -6.613281 8.675781 -7.695312 7.90625 -8.4375 C 7.132812 -9.175781 6.035156 -9.546875 4.609375 -9.546875 L 3.234375 -9.546875 L 3.234375 -0.71875 C 3.847656 -0.675781 4.570312 -0.65625 5.40625 -0.65625 C 6.65625 -0.65625 7.578125 -1.023438 8.171875 -1.765625 C 8.765625 -2.503906 9.0625 -3.644531 9.0625 -5.1875 Z M 5.09375 -10.234375 C 6.976562 -10.234375 8.375 -9.8125 9.28125 -8.96875 C 10.195312 -8.125 10.65625 -6.859375 10.65625 -5.171875 C 10.65625 -3.460938 10.21875 -2.164062 9.34375 -1.28125 C 8.46875 -0.40625 7.15625 0.03125 5.40625 0.03125 L 1.765625 0 L 0.453125 0 L 0.453125 -0.40625 L 1.765625 -0.609375 L 1.765625 -9.625 L 0.453125 -9.828125 L 0.453125 -10.234375 Z M 5.09375 -10.234375 "/></g></g></g><g fill="#059669" fill-opacity="1"><g transform="translate(52.902495, 84.841536)"><g><path d="M 3.515625 -0.40625 L 3.515625 0 L 0.15625 0 L 0.15625 -0.40625 L 1.3125 -0.609375 L 4.796875 -10.3125 L 6.25 -10.3125 L 9.875 -0.609375 L 11.171875 -0.40625 L 11.171875 0 L 6.84375 0 L 6.84375 -0.40625 L 8.21875 -0.609375 L 7.203125 -3.5625 L 3.171875 -3.5625 L 2.140625 -0.609375 Z M 5.15625 -9.21875 L 3.40625 -4.25 L 6.96875 -4.25 Z M 5.15625 -9.21875 "/></g></g></g><g fill="#059669" fill-opacity="1"><g transform="translate(62.750623, 84.841536)"><g><path d="M 6.390625 -4.03125 L 6.390625 -0.609375 L 8.015625 -0.40625 L 8.015625 0 L 3.296875 0 L 3.296875 -0.40625 L 4.921875 -0.609375 L 4.921875 -3.984375 L 1.328125 -9.625 L 0.171875 -9.828125 L 0.171875 -10.234375 L 4.5 -10.234375 L 4.5 -9.828125 L 3.125 -9.625 L 6.0625 -4.90625 L 8.859375 -9.625 L 7.5625 -9.828125 L 7.5625 -10.234375 L 10.890625 -10.234375 L 10.890625 -9.828125 L 9.765625 -9.625 Z M 6.390625 -4.03125 "/></g></g></g><g fill="#059669" fill-opacity="1"><g transform="translate(74.033404, 84.841536)"><g><path d="M 1.0625 -2.75 L 1.5625 -2.75 L 1.828125 -1.375 C 2.015625 -1.132812 2.335938 -0.921875 2.796875 -0.734375 C 3.253906 -0.554688 3.707031 -0.46875 4.15625 -0.46875 C 4.863281 -0.46875 5.414062 -0.648438 5.8125 -1.015625 C 6.21875 -1.378906 6.421875 -1.878906 6.421875 -2.515625 C 6.421875 -2.878906 6.34375 -3.179688 6.1875 -3.421875 C 6.03125 -3.660156 5.828125 -3.863281 5.578125 -4.03125 C 5.328125 -4.195312 5.039062 -4.335938 4.71875 -4.453125 C 4.394531 -4.566406 4.066406 -4.679688 3.734375 -4.796875 C 3.398438 -4.910156 3.070312 -5.039062 2.75 -5.1875 C 2.425781 -5.332031 2.140625 -5.515625 1.890625 -5.734375 C 1.640625 -5.953125 1.4375 -6.222656 1.28125 -6.546875 C 1.125 -6.867188 1.046875 -7.265625 1.046875 -7.734375 C 1.046875 -8.546875 1.347656 -9.179688 1.953125 -9.640625 C 2.566406 -10.109375 3.414062 -10.34375 4.5 -10.34375 C 5.320312 -10.34375 6.21875 -10.234375 7.1875 -10.015625 L 7.1875 -7.890625 L 6.6875 -7.890625 L 6.421875 -9.140625 C 5.898438 -9.515625 5.257812 -9.703125 4.5 -9.703125 C 3.820312 -9.703125 3.289062 -9.5625 2.90625 -9.28125 C 2.519531 -9.007812 2.328125 -8.628906 2.328125 -8.140625 C 2.328125 -7.804688 2.40625 -7.53125 2.5625 -7.3125 C 2.71875 -7.09375 2.921875 -6.90625 3.171875 -6.75 C 3.421875 -6.59375 3.707031 -6.457031 4.03125 -6.34375 C 4.351562 -6.238281 4.679688 -6.125 5.015625 -6 C 5.359375 -5.882812 5.691406 -5.75 6.015625 -5.59375 C 6.335938 -5.445312 6.625 -5.257812 6.875 -5.03125 C 7.125 -4.800781 7.328125 -4.519531 7.484375 -4.1875 C 7.640625 -3.851562 7.71875 -3.441406 7.71875 -2.953125 C 7.71875 -1.960938 7.414062 -1.195312 6.8125 -0.65625 C 6.207031 -0.113281 5.335938 0.15625 4.203125 0.15625 C 3.648438 0.15625 3.09375 0.101562 2.53125 0 C 1.976562 -0.09375 1.488281 -0.222656 1.0625 -0.390625 Z M 1.0625 -2.75 "/></g></g></g><path fill="#ffffff" d="M 23 82.285156 L 24.414062 81.617188 L 26.050781 85.335938 L 22.703125 86.828125 C 22.179688 86.601562 21.660156 86.230469 21.066406 85.710938 C 20.46875 85.113281 20.023438 84.519531 19.726562 83.847656 C 19.351562 82.957031 19.128906 82.136719 19.277344 81.242188 C 19.351562 80.425781 19.652344 79.679688 20.171875 79.011719 C 20.691406 78.339844 21.363281 77.894531 22.179688 77.523438 C 23.074219 77.148438 23.96875 76.925781 24.785156 77 C 25.605469 77.074219 26.425781 77.375 27.09375 77.894531 C 27.613281 78.339844 28.0625 78.9375 28.433594 79.753906 C 28.878906 80.796875 29.027344 81.765625 28.878906 82.507812 C 28.730469 83.328125 28.285156 83.921875 27.539062 84.445312 L 26.425781 82.882812 C 26.796875 82.582031 27.019531 82.210938 27.09375 81.765625 C 27.167969 81.320312 27.09375 80.871094 26.871094 80.351562 C 26.5 79.605469 26.050781 79.085938 25.382812 78.863281 C 24.710938 78.640625 23.894531 78.714844 23 79.160156 C 21.957031 79.605469 21.363281 80.203125 21.066406 80.871094 C 20.765625 81.542969 20.765625 82.210938 21.066406 82.957031 C 21.214844 83.328125 21.4375 83.625 21.734375 83.921875 C 22.03125 84.222656 22.328125 84.445312 22.628906 84.59375 L 23.667969 84.148438 Z M 23 82.285156 " fill-opacity="1" fill-rule="nonzero"/><path fill="#ffffff" d="M 31.484375 85.785156 L 32.675781 87.199219 L 28.804688 90.398438 C 28.210938 90.921875 27.839844 91.292969 27.6875 91.441406 C 27.464844 91.738281 27.316406 92.109375 27.316406 92.484375 C 27.316406 92.855469 27.539062 93.226562 27.839844 93.675781 C 28.210938 94.046875 28.507812 94.34375 28.878906 94.417969 C 29.253906 94.492188 29.550781 94.417969 29.773438 94.269531 C 30.070312 94.121094 30.441406 93.824219 31.039062 93.300781 L 34.984375 90.027344 L 36.175781 91.441406 L 32.453125 94.566406 C 31.558594 95.3125 30.964844 95.757812 30.519531 95.980469 C 30.070312 96.207031 29.699219 96.28125 29.253906 96.28125 C 28.804688 96.28125 28.433594 96.128906 27.988281 95.90625 C 27.539062 95.683594 27.09375 95.3125 26.648438 94.714844 C 26.050781 94.046875 25.753906 93.449219 25.605469 93.003906 C 25.457031 92.558594 25.457031 92.035156 25.53125 91.664062 C 25.605469 91.292969 25.753906 90.921875 25.976562 90.621094 C 26.273438 90.175781 26.871094 89.65625 27.6875 88.984375 Z M 31.484375 85.785156 " fill-opacity="1" fill-rule="nonzero"/><path fill="#ffffff" d="M 39.894531 105.808594 L 38.257812 104.617188 L 38.78125 102.457031 L 35.726562 100.300781 L 33.867188 101.5625 L 32.230469 100.449219 L 40.566406 94.941406 L 42.203125 96.054688 Z M 39.152344 100.820312 L 40.121094 97.246094 L 37.140625 99.332031 Z M 39.152344 100.820312 " fill-opacity="1" fill-rule="nonzero"/><path fill="#ffffff" d="M 43.839844 107.742188 L 47.042969 99.035156 L 50.761719 100.375 C 51.730469 100.746094 52.328125 101.042969 52.699219 101.339844 C 53.070312 101.640625 53.292969 102.085938 53.441406 102.53125 C 53.519531 103.054688 53.519531 103.5 53.292969 104.019531 C 53.070312 104.691406 52.699219 105.136719 52.101562 105.433594 C 51.582031 105.734375 50.914062 105.808594 50.09375 105.582031 C 50.390625 105.957031 50.613281 106.328125 50.761719 106.625 C 50.914062 106.921875 51.0625 107.59375 51.285156 108.414062 L 51.730469 110.496094 L 49.648438 109.753906 L 49.050781 107.371094 C 48.828125 106.550781 48.679688 105.957031 48.605469 105.734375 C 48.53125 105.507812 48.382812 105.285156 48.234375 105.210938 C 48.082031 105.0625 47.785156 104.914062 47.414062 104.765625 L 47.042969 104.617188 L 45.703125 108.261719 Z M 47.414062 103.351562 L 48.753906 103.796875 C 49.574219 104.09375 50.167969 104.242188 50.390625 104.242188 C 50.613281 104.242188 50.839844 104.167969 50.988281 104.019531 C 51.136719 103.871094 51.285156 103.722656 51.433594 103.425781 C 51.507812 103.128906 51.582031 102.828125 51.433594 102.605469 C 51.359375 102.382812 51.136719 102.160156 50.914062 102.011719 C 50.761719 101.9375 50.316406 101.789062 49.648438 101.488281 L 48.234375 100.96875 Z M 47.414062 103.351562 " fill-opacity="1" fill-rule="nonzero"/><path fill="#ffffff" d="M 64.386719 112.132812 L 62.375 111.984375 L 61.707031 109.828125 L 57.984375 109.527344 L 57.015625 111.539062 L 55.007812 111.390625 L 59.398438 102.457031 L 61.40625 102.605469 Z M 61.183594 108.1875 L 60.214844 104.617188 L 58.652344 107.964844 Z M 61.183594 108.1875 " fill-opacity="1" fill-rule="nonzero"/><path fill="#ffffff" d="M 68.703125 111.761719 L 67.066406 102.605469 L 68.851562 102.308594 L 73.6875 107.742188 L 72.574219 101.640625 L 74.285156 101.339844 L 75.921875 110.496094 L 74.0625 110.867188 L 69.296875 105.582031 L 70.414062 111.539062 Z M 68.703125 111.761719 " fill-opacity="1" fill-rule="nonzero"/><path fill="#ffffff" d="M 82.769531 107.964844 L 79.570312 100.96875 L 77.039062 102.085938 L 76.367188 100.671875 L 83.066406 97.621094 L 83.738281 99.035156 L 81.207031 100.148438 L 84.40625 107.148438 Z M 82.769531 107.964844 " fill-opacity="1" fill-rule="nonzero"/><path fill="#ffffff" d="M 90.585938 103.871094 L 84.855469 96.503906 L 90.289062 92.261719 L 91.253906 93.527344 L 87.308594 96.578125 L 88.574219 98.214844 L 92.296875 95.386719 L 93.265625 96.652344 L 89.542969 99.480469 L 91.105469 101.488281 L 95.199219 98.289062 L 96.167969 99.554688 Z M 90.585938 103.871094 " fill-opacity="1" fill-rule="nonzero"/><path fill="#ffffff" d="M 99.441406 96.207031 L 92.148438 90.472656 L 96.390625 85.039062 L 97.65625 86.007812 L 94.53125 89.953125 L 96.167969 91.21875 L 99.070312 87.570312 L 100.335938 88.539062 L 97.433594 92.1875 L 99.441406 93.75 L 102.644531 89.65625 L 103.910156 90.621094 Z M 99.441406 96.207031 " fill-opacity="1" fill-rule="nonzero"/><path fill="#ffffff" d="M 97.804688 82.734375 L 99.144531 79.605469 C 99.441406 78.863281 99.742188 78.414062 100.039062 78.042969 C 100.410156 77.597656 100.855469 77.300781 101.378906 77.074219 C 101.898438 76.851562 102.496094 76.777344 103.089844 76.851562 C 103.6875 76.925781 104.429688 77.074219 105.25 77.449219 C 105.917969 77.746094 106.515625 78.117188 106.960938 78.488281 C 107.480469 79.011719 107.855469 79.53125 108.078125 80.054688 C 108.226562 80.5 108.300781 80.945312 108.226562 81.542969 C 108.152344 81.988281 108.003906 82.507812 107.703125 83.179688 L 106.289062 86.378906 Z M 100.039062 81.617188 L 105.695312 84.074219 L 106.289062 82.808594 C 106.515625 82.359375 106.589844 81.988281 106.664062 81.765625 C 106.738281 81.46875 106.664062 81.167969 106.589844 80.945312 C 106.515625 80.722656 106.289062 80.425781 105.992188 80.128906 C 105.695312 79.828125 105.175781 79.53125 104.503906 79.308594 C 103.835938 79.011719 103.3125 78.863281 102.941406 78.789062 C 102.570312 78.714844 102.195312 78.789062 101.898438 78.9375 C 101.601562 79.085938 101.378906 79.234375 101.15625 79.53125 C 101.007812 79.753906 100.78125 80.203125 100.484375 80.871094 Z M 100.039062 81.617188 " fill-opacity="1" fill-rule="nonzero"/><g clip-path="url(#0e00a1da1a)"><g transform="matrix(1, 0, 0, 1, 39, 41)"><g clip-path="url(#9a06067d87)"><g clip-path="url(#616f3f9cb6)"><path fill="#ffffff" d="M 0.699219 0.804688 L 48.121094 0.804688 L 48.121094 45.765625 L 0.699219 45.765625 Z M 0.699219 0.804688 " fill-opacity="1" fill-rule="nonzero"/></g></g></g></g><g fill="#059669" fill-opacity="1"><g transform="translate(42.832847, 69.374519)"><g><path d="M 17.40625 -26.484375 C 15.582031 -26.179688 13.976562 -25.710938 12.59375 -25.078125 C 11.21875 -24.453125 10.039062 -23.617188 9.0625 -22.578125 C 8.082031 -21.546875 7.300781 -20.269531 6.71875 -18.75 C 6.144531 -17.226562 5.75 -15.40625 5.53125 -13.28125 L 5.609375 -13.28125 C 6.285156 -14.40625 7.132812 -15.253906 8.15625 -15.828125 C 9.1875 -16.410156 10.265625 -16.703125 11.390625 -16.703125 C 12.441406 -16.703125 13.429688 -16.503906 14.359375 -16.109375 C 15.296875 -15.722656 16.109375 -15.171875 16.796875 -14.453125 C 17.484375 -13.742188 18.019531 -12.875 18.40625 -11.84375 C 18.800781 -10.820312 19 -9.671875 19 -8.390625 C 19 -7.160156 18.785156 -6.003906 18.359375 -4.921875 C 17.929688 -3.847656 17.335938 -2.914062 16.578125 -2.125 C 15.828125 -1.332031 14.929688 -0.703125 13.890625 -0.234375 C 12.847656 0.222656 11.703125 0.453125 10.453125 0.453125 C 7.742188 0.453125 5.644531 -0.476562 4.15625 -2.34375 C 2.664062 -4.21875 1.921875 -6.820312 1.921875 -10.15625 C 1.921875 -12.257812 2.28125 -14.242188 3 -16.109375 C 3.726562 -17.984375 4.765625 -19.664062 6.109375 -21.15625 C 7.453125 -22.644531 9.066406 -23.90625 10.953125 -24.9375 C 12.847656 -25.96875 14.953125 -26.679688 17.265625 -27.078125 Z M 10.453125 -0.15625 C 12.035156 -0.15625 13.25 -0.800781 14.09375 -2.09375 C 14.945312 -3.382812 15.375 -5.519531 15.375 -8.5 C 15.375 -11.15625 14.992188 -13.082031 14.234375 -14.28125 C 13.472656 -15.488281 12.335938 -16.09375 10.828125 -16.09375 C 10.328125 -16.09375 9.8125 -15.992188 9.28125 -15.796875 C 8.757812 -15.597656 8.257812 -15.316406 7.78125 -14.953125 C 7.3125 -14.585938 6.878906 -14.140625 6.484375 -13.609375 C 6.097656 -13.085938 5.816406 -12.5 5.640625 -11.84375 C 5.617188 -11.570312 5.59375 -11.269531 5.5625 -10.9375 C 5.539062 -10.613281 5.53125 -10.203125 5.53125 -9.703125 C 5.53125 -8.546875 5.5625 -7.515625 5.625 -6.609375 C 5.6875 -5.710938 5.804688 -4.925781 5.984375 -4.25 C 6.179688 -3.425781 6.429688 -2.75 6.734375 -2.21875 C 7.035156 -1.6875 7.378906 -1.265625 7.765625 -0.953125 C 8.148438 -0.640625 8.566406 -0.425781 9.015625 -0.3125 C 9.472656 -0.207031 9.953125 -0.15625 10.453125 -0.15625 Z M 10.453125 -0.15625 "/></g></g></g><g fill="#059669" fill-opacity="1"><g transform="translate(63.742986, 69.374519)"><g><path d="M 18.921875 -13.125 C 18.921875 -11.144531 18.734375 -9.320312 18.359375 -7.65625 C 17.984375 -5.988281 17.429688 -4.550781 16.703125 -3.34375 C 15.972656 -2.144531 15.082031 -1.210938 14.03125 -0.546875 C 12.976562 0.117188 11.785156 0.453125 10.453125 0.453125 C 9.097656 0.453125 7.898438 0.113281 6.859375 -0.5625 C 5.816406 -1.238281 4.929688 -2.175781 4.203125 -3.375 C 3.484375 -4.582031 2.9375 -6.019531 2.5625 -7.6875 C 2.1875 -9.351562 2 -11.164062 2 -13.125 C 2 -15.082031 2.1875 -16.894531 2.5625 -18.5625 C 2.9375 -20.226562 3.484375 -21.660156 4.203125 -22.859375 C 4.929688 -24.066406 5.816406 -25.007812 6.859375 -25.6875 C 7.898438 -26.363281 9.097656 -26.703125 10.453125 -26.703125 C 11.785156 -26.703125 12.976562 -26.363281 14.03125 -25.6875 C 15.082031 -25.007812 15.972656 -24.066406 16.703125 -22.859375 C 17.429688 -21.660156 17.984375 -20.234375 18.359375 -18.578125 C 18.734375 -16.921875 18.921875 -15.101562 18.921875 -13.125 Z M 15.3125 -15.796875 C 15.3125 -19.078125 14.925781 -21.613281 14.15625 -23.40625 C 13.394531 -25.195312 12.148438 -26.09375 10.421875 -26.09375 C 7.210938 -26.09375 5.609375 -22.632812 5.609375 -15.71875 L 5.609375 -10.421875 C 5.609375 -7.109375 6 -4.566406 6.78125 -2.796875 C 7.570312 -1.035156 8.796875 -0.15625 10.453125 -0.15625 C 12.054688 -0.15625 13.265625 -1 14.078125 -2.6875 C 14.898438 -4.382812 15.3125 -7 15.3125 -10.53125 Z M 15.3125 -15.796875 "/></g></g></g><g fill="#059669" fill-opacity="1"><g transform="translate(44.074231, 82.655443)"><g><path d="M 4.71875 -10.140625 C 5.53125 -10.140625 6.238281 -9.992188 6.84375 -9.703125 C 7.445312 -9.421875 7.945312 -9.039062 8.34375 -8.5625 C 8.75 -8.082031 9.050781 -7.535156 9.25 -6.921875 C 9.457031 -6.316406 9.5625 -5.695312 9.5625 -5.0625 C 9.5625 -4.25 9.4375 -3.53125 9.1875 -2.90625 C 8.945312 -2.28125 8.609375 -1.75 8.171875 -1.3125 C 7.742188 -0.882812 7.238281 -0.554688 6.65625 -0.328125 C 6.070312 -0.109375 5.429688 0 4.734375 0 L 0.140625 0 L 0.140625 -0.234375 L 1.515625 -0.234375 L 1.515625 -9.90625 L 0.140625 -9.90625 L 0.140625 -10.140625 Z M 4.234375 -0.234375 C 5.398438 -0.234375 6.304688 -0.628906 6.953125 -1.421875 C 7.597656 -2.222656 7.921875 -3.441406 7.921875 -5.078125 C 7.921875 -6.742188 7.570312 -7.960938 6.875 -8.734375 C 6.175781 -9.515625 5.125 -9.90625 3.71875 -9.90625 L 2.984375 -9.90625 L 2.984375 -0.234375 Z M 4.234375 -0.234375 "/></g></g></g><g fill="#059669" fill-opacity="1"><g transform="translate(54.782457, 82.655443)"><g><path d="M 4.609375 -10.375 L 4.765625 -10.375 L 8.265625 -0.234375 L 9.46875 -0.234375 L 9.46875 0 L 5.25 0 L 5.25 -0.234375 L 6.65625 -0.234375 L 5.625 -3.28125 L 2.53125 -3.28125 C 2.34375 -2.695312 2.195312 -2.238281 2.09375 -1.90625 C 1.988281 -1.570312 1.90625 -1.316406 1.84375 -1.140625 C 1.789062 -0.972656 1.757812 -0.851562 1.75 -0.78125 C 1.738281 -0.71875 1.734375 -0.65625 1.734375 -0.59375 C 1.734375 -0.351562 1.957031 -0.234375 2.40625 -0.234375 L 3.109375 -0.234375 L 3.109375 0 L 0.140625 0 L 0.140625 -0.234375 L 0.65625 -0.234375 C 0.925781 -0.234375 1.113281 -0.300781 1.21875 -0.4375 C 1.320312 -0.582031 1.429688 -0.828125 1.546875 -1.171875 Z M 4.03125 -7.875 L 2.625 -3.515625 L 5.546875 -3.515625 L 4.0625 -7.875 Z M 4.03125 -7.875 "/></g></g></g><g fill="#059669" fill-opacity="1"><g transform="translate(64.698042, 82.655443)"><g><path d="M 4.34375 -10.140625 L 4.34375 -9.90625 L 3.140625 -9.90625 L 5.546875 -4.34375 L 7.328125 -8.375 C 7.429688 -8.625 7.519531 -8.835938 7.59375 -9.015625 C 7.664062 -9.191406 7.703125 -9.359375 7.703125 -9.515625 C 7.703125 -9.773438 7.507812 -9.90625 7.125 -9.90625 L 6.515625 -9.90625 L 6.515625 -10.140625 L 9.46875 -10.140625 L 9.46875 -9.90625 L 9.03125 -9.90625 C 8.875 -9.90625 8.742188 -9.898438 8.640625 -9.890625 C 8.535156 -9.878906 8.441406 -9.835938 8.359375 -9.765625 C 8.273438 -9.703125 8.195312 -9.601562 8.125 -9.46875 C 8.050781 -9.332031 7.957031 -9.144531 7.84375 -8.90625 L 5.625 -3.953125 L 5.625 -0.234375 L 7.140625 -0.234375 L 7.140625 0 L 2.625 0 L 2.625 -0.234375 L 4.15625 -0.234375 L 4.15625 -3.71875 L 1.453125 -9.90625 L 0.140625 -9.90625 L 0.140625 -10.140625 Z M 4.34375 -10.140625 "/></g></g></g><g fill="#059669" fill-opacity="1"><g transform="translate(75.420763, 82.655443)"><g><path d="M 6 -9.5 C 6.164062 -9.5 6.269531 -9.5625 6.3125 -9.6875 C 6.363281 -9.8125 6.398438 -9.929688 6.421875 -10.046875 L 6.65625 -10.046875 L 6.65625 -7.015625 L 6.421875 -7.015625 C 6.347656 -7.972656 6.050781 -8.734375 5.53125 -9.296875 C 5.019531 -9.859375 4.332031 -10.140625 3.46875 -10.140625 C 2.851562 -10.140625 2.351562 -9.945312 1.96875 -9.5625 C 1.582031 -9.1875 1.390625 -8.671875 1.390625 -8.015625 C 1.390625 -7.660156 1.4375 -7.375 1.53125 -7.15625 C 1.625 -6.9375 1.78125 -6.753906 2 -6.609375 C 2.21875 -6.472656 2.515625 -6.363281 2.890625 -6.28125 C 3.265625 -6.195312 3.726562 -6.101562 4.28125 -6 C 4.8125 -5.882812 5.257812 -5.757812 5.625 -5.625 C 6 -5.488281 6.304688 -5.304688 6.546875 -5.078125 C 6.796875 -4.847656 6.972656 -4.570312 7.078125 -4.25 C 7.179688 -3.925781 7.234375 -3.53125 7.234375 -3.0625 C 7.234375 -2.050781 6.957031 -1.25 6.40625 -0.65625 C 5.863281 -0.0625 5.101562 0.234375 4.125 0.234375 C 3.769531 0.234375 3.445312 0.191406 3.15625 0.109375 C 2.875 0.0351562 2.617188 -0.046875 2.390625 -0.140625 C 2.171875 -0.234375 1.976562 -0.316406 1.8125 -0.390625 C 1.644531 -0.472656 1.5 -0.515625 1.375 -0.515625 C 1.195312 -0.515625 1.09375 -0.445312 1.0625 -0.3125 C 1.03125 -0.175781 1.015625 -0.0390625 1.015625 0.09375 L 0.78125 0.09375 L 0.78125 -3.5625 L 1.015625 -3.5625 C 1.015625 -3 1.085938 -2.492188 1.234375 -2.046875 C 1.378906 -1.609375 1.59375 -1.238281 1.875 -0.9375 C 2.15625 -0.632812 2.484375 -0.398438 2.859375 -0.234375 C 3.242188 -0.078125 3.675781 0 4.15625 0 C 4.507812 0 4.832031 -0.0507812 5.125 -0.15625 C 5.414062 -0.257812 5.664062 -0.40625 5.875 -0.59375 C 6.082031 -0.789062 6.242188 -1.023438 6.359375 -1.296875 C 6.484375 -1.566406 6.546875 -1.863281 6.546875 -2.1875 C 6.546875 -2.675781 6.457031 -3.054688 6.28125 -3.328125 C 6.101562 -3.609375 5.875 -3.820312 5.59375 -3.96875 C 5.320312 -4.113281 5.003906 -4.21875 4.640625 -4.28125 C 4.285156 -4.34375 3.914062 -4.410156 3.53125 -4.484375 C 3.226562 -4.523438 2.945312 -4.582031 2.6875 -4.65625 C 2.4375 -4.726562 2.207031 -4.816406 2 -4.921875 C 1.59375 -5.117188 1.285156 -5.414062 1.078125 -5.8125 C 0.878906 -6.207031 0.78125 -6.773438 0.78125 -7.515625 C 0.78125 -7.929688 0.84375 -8.3125 0.96875 -8.65625 C 1.101562 -9.007812 1.285156 -9.3125 1.515625 -9.5625 C 1.753906 -9.820312 2.035156 -10.019531 2.359375 -10.15625 C 2.691406 -10.300781 3.0625 -10.375 3.46875 -10.375 C 3.820312 -10.375 4.132812 -10.328125 4.40625 -10.234375 C 4.675781 -10.140625 4.910156 -10.035156 5.109375 -9.921875 C 5.304688 -9.816406 5.472656 -9.71875 5.609375 -9.625 C 5.753906 -9.539062 5.882812 -9.5 6 -9.5 Z M 6 -9.5 "/></g></g></g></svg>